Format : AVI
Format/Info : Audio Video Interleave
File size : 700 MiB
Duration : 1h 36mn
Overall bit rate : 1 011 Kbps
Writing application : VirtualDubMod 1.5.4.1 (build 2178/release)
Writing library : VirtualDubMod build 2178/release

Video
ID : 0
Format : MPEG-4 Visual
Format settings, BVOP : Yes
Format settings, QPel : No
Format settings, GMC : No warppoints
Format settings, Matrix : Default (H.263)
Muxing mode : Packed bitstream
Codec ID : DX50
Codec ID/Hint : DivX 5
Duration : 1h 36mn
Bit rate : 875 Kbps
Width : 720 pixels
Height : 304 pixels
Display aspect ratio : 2.35:1
Frame rate : 25.000 fps
Resolution : 24 bits
Colorimetry : 4:2:0
Scan type : Progressive
Bits/(Pixel*Frame) : 0.160
Stream size : 607 MiB (87%)
Writing library : DivX 6.8.4

Audio
ID : 1
Format : MPEG Audio
Format version : Version 1
Format profile : Layer 3
Codec ID : 55
Codec ID/Hint : MP3
Duration : 1h 36mn
Bit rate mode : Constant
Bit rate : 128 Kbps
Channel(s) : 2 channels
Sampling rate : 48.0 KHz
Resolution : 16 bits
Stream size : 88.7 MiB (13%)
Alignment : Aligned on interleaves
Interleave, duration : 80 ms (2.00 video frames)
Interleave, preload duration : 504 ms
Writing library : LAME3.98r
Encoding settings : -m j -V 4 -q 2 -lowpass 17 -b 128
Language : English

Starring
Milla Jovovich
Ali Larter
Kim Coates
Shawn Roberts
Spencer Locke
Boris Kodjoe
Wentworth Miller

After the events of Resident Evil: Extinction, the Alice clones (Milla Jovovich) attempt to kill Albert Wesker (Shawn Roberts) at his base in Tokyo. All present clones are killed in an explosion, activated by Wesker as he escapes in an aircraft. The original Alice ambushes him, but Wesker injects her with a serum that neutralizes the T-virus in her system, eliminating her superhuman powers and making her human again. He reveals that his T-Virus powers have surpassed her own, but before he can kill her, the aircraft crashes and Alice emerges from the wreckage.
 
http://www.imdb.com/title/tt1220634/

screens
 
http://img641.imageshack.us/img641/5509/resevil4divxviceavisnap.jpg 
http://img195.imageshack.us/img195/5509/resevil4divxviceavisnap.jpg 
http://img146.imageshack.us/img146/5509/resevil4divxviceavisnap.jpg 
http://img204.imageshack.us/img204/5509/resevil4divxviceavisnap.jpg